<svg width="49" height="49" viewBox="0 0 49 49" fill="none" xmlns="http://www.w3.org/2000/svg">
<rect y="0.432861" width="48.0537" height="48.0537" rx="24.0268" fill="#DBDBDB"/>
<path d="M23.7579 36.4731C22.0722 35.0353 20.5098 33.4591 19.0869 31.7608C16.9517 29.2105 14.416 25.4124 14.416 21.7931C14.4141 18.013 16.6904 14.6044 20.1827 13.1578C23.675 11.7111 27.6949 12.5116 30.3666 15.1857C32.1234 16.9348 33.1076 19.314 33.0998 21.7931C33.0998 25.4124 30.5641 29.2105 28.4288 31.7608C27.0059 33.4591 25.4435 35.0353 23.7579 36.4731ZM23.7579 17.7894C22.3275 17.7894 21.0058 18.5525 20.2906 19.7913C19.5754 21.03 19.5754 22.5562 20.2906 23.7949C21.0058 25.0336 22.3275 25.7967 23.7579 25.7967C25.969 25.7967 27.7615 24.0042 27.7615 21.7931C27.7615 19.5819 25.969 17.7894 23.7579 17.7894Z" fill="#A6A6A6"/>
</svg>
