<svg width="57" height="56" viewBox="0 0 57 56" fill="none" xmlns="http://www.w3.org/2000/svg">
<path fill-rule="evenodd" clip-rule="evenodd" d="M0.500001 4.67855C0.500001 3.43772 0.992917 2.24772 1.87031 1.37032C2.74771 0.492923 3.93772 6.23716e-06 5.17855 6.23716e-06H51.8164C52.4313 -0.000998076 53.0404 0.119294 53.6087 0.353994C54.1771 0.588695 54.6936 0.933195 55.1286 1.36777C55.5637 1.80235 55.9087 2.31847 56.1441 2.88658C56.3794 3.45469 56.5003 4.06363 56.5 4.67855V51.3164C56.5007 51.9314 56.3801 52.5405 56.1451 53.1089C55.9101 53.6773 55.5654 54.1938 55.1306 54.6288C54.6958 55.0638 54.1795 55.4088 53.6113 55.6441C53.043 55.8794 52.4339 56.0003 51.8189 56H5.17855C4.56394 56 3.95535 55.8789 3.38756 55.6436C2.81976 55.4083 2.30389 55.0635 1.86941 54.6288C1.43494 54.1941 1.09037 53.678 0.855403 53.1101C0.620434 52.5422 0.499666 51.9335 0.500001 51.3189V4.67855ZM22.6658 21.3513H30.2487V25.1593C31.3433 22.9702 34.1433 21 38.3509 21C46.4174 21 48.3291 25.3604 48.3291 33.3607V48.1804H40.1658V35.1833C40.1658 30.6269 39.0713 28.056 36.2916 28.056C32.4353 28.056 30.8316 30.828 30.8316 35.1833V48.1804H22.6658V21.3513ZM8.66582 47.8316H16.8316V21H8.66582V47.8291V47.8316ZM18 12.2487C18.0154 12.9479 17.891 13.6431 17.6341 14.2935C17.3771 14.944 16.9929 15.5365 16.5039 16.0364C16.0148 16.5364 15.4309 16.9336 14.7862 17.2047C14.1416 17.4759 13.4493 17.6156 12.75 17.6156C12.0507 17.6156 11.3584 17.4759 10.7138 17.2047C10.0691 16.9336 9.48517 16.5364 8.99614 16.0364C8.50711 15.5365 8.12285 14.944 7.86594 14.2935C7.60902 13.6431 7.4846 12.9479 7.5 12.2487C7.53022 10.8764 8.09662 9.57038 9.07789 8.61048C10.0592 7.65058 11.3773 7.11307 12.75 7.11307C14.1227 7.11307 15.4408 7.65058 16.4221 8.61048C17.4034 9.57038 17.9698 10.8764 18 12.2487V12.2487Z" fill="white"/>
</svg>
